<?xml version="1.0" encoding="UTF-8" standalone="no"?>
<!-- Created with Inkscape (http://www.inkscape.org/) -->

<svg
   version="1.1"
   id="svg2708"
   width="357.27911"
   height="373.89337"
   viewBox="0 0 357.27912 373.89337"
   sodipodi:docname="a3.svg"
   inkscape:version="1.2.2 (732a01da63, 2022-12-09, custom)"
   xmlns:inkscape="http://www.inkscape.org/namespaces/inkscape"
   xmlns:sodipodi="http://sodipodi.sourceforge.net/DTD/sodipodi-0.dtd"
   xmlns="http://www.w3.org/2000/svg"
   xmlns:svg="http://www.w3.org/2000/svg">
  <defs
     id="defs2712" />
  <sodipodi:namedview
     id="namedview2710"
     pagecolor="#ffffff"
     bordercolor="#000000"
     borderopacity="0.25"
     inkscape:showpageshadow="2"
     inkscape:pageopacity="0.0"
     inkscape:pagecheckerboard="0"
     inkscape:deskcolor="#d1d1d1"
     showgrid="false"
     inkscape:zoom="0.98603159"
     inkscape:cx="174.4366"
     inkscape:cy="195.73409"
     inkscape:window-width="1920"
     inkscape:window-height="1031"
     inkscape:window-x="0"
     inkscape:window-y="25"
     inkscape:window-maximized="1"
     inkscape:current-layer="layer1" />
  <g
     inkscape:groupmode="layer"
     id="layer1"
     inkscape:label="Layer 1"
     transform="translate(-31.050605,-27.428592)">
    <path
       id="path3189"
       style="fill:#000000;stroke-width:1.33333"
       d="M 252.10139 27.430545 C 251.11262 27.483267 251.01006 28.377153 251.32209 30.842654 C 251.69478 33.787554 251.04476 35.230912 248.63264 36.811404 C 246.88284 37.957914 244.82399 38.509169 244.05842 38.036014 C 243.29283 37.562858 242.66584 37.852563 242.66584 38.678592 C 242.66584 39.625909 241.56714 39.831243 239.68928 39.235233 C 238.05184 38.71553 230.70118 38.352622 223.35529 38.428592 C 212.57723 38.540067 208.77666 39.13422 203.66584 41.510623 C 200.18251 43.130285 197.33381 45.188655 197.33381 46.084842 C 197.33381 48.549244 194.60155 49.16807 179.33381 50.155154 C 171.63342 50.652997 165.33381 51.48708 165.33381 52.00867 C 165.33381 52.53026 169.85154 53.729897 175.37482 54.674686 C 180.89811 55.619476 185.74904 56.927449 186.15412 57.582889 C 186.55921 58.238331 188.04018 58.409661 189.44514 57.963748 C 190.93016 57.492415 191.99982 57.782041 191.99982 58.655154 C 191.99982 59.481185 192.50424 59.844901 193.12092 59.463748 C 195.05521 58.26829 199.5961 65.814893 199.46076 70.000858 C 199.38236 72.425728 196.26626 78.822979 191.54279 86.254764 C 182.41103 100.62247 179.05007 102.42443 171.27912 97.121951 C 165.51225 93.186953 163.15484 87.322498 161.19318 72.026248 C 159.96683 62.463718 158.86443 58.832176 155.97443 54.842654 C 149.70509 46.188078 144.88839 44.700183 122.25764 44.432498 C 109.20577 44.278115 101.86129 43.657774 100.58967 42.60242 C 99.531717 41.724404 98.665839 41.43876 98.665839 41.967654 C 98.665839 42.496548 96.532233 41.670817 93.923652 40.131717 C 88.078556 36.683025 87.545126 36.658368 89.286933 39.912967 C 92.072815 45.118435 91.150656 45.766806 82.333808 44.801639 C 77.75048 44.299909 67.400467 43.316958 59.333808 42.618045 C 51.26715 41.919134 41.717343 40.443872 38.113105 39.338748 C 34.508865 38.233611 31.354217 37.533182 31.103339 37.784061 C 30.303636 38.583764 38.695138 49.427813 40.712714 50.202029 C 44.347065 51.596661 41.140077 53.418243 36.562324 52.559451 C 34.052846 52.088662 31.999824 52.095149 31.999824 52.573123 C 31.999824 54.806399 38.108888 61.330718 41.523261 62.744998 C 46.7727 64.919386 46.634359 68.266714 41.333808 67.332889 C 36.083069 66.407841 36.279859 68.13296 41.999824 73.155154 C 46.481705 77.090299 48.321939 82.666873 45.138496 82.666873 C 42.902725 82.666873 50.063583 88.962666 53.562324 90.073123 C 55.201752 90.593459 57.436462 91.912105 58.529121 93.004764 C 60.289102 94.764745 60.068315 94.89744 56.591621 94.16492 C 54.433165 93.710145 51.8342 93.873614 50.81623 94.528201 C 49.405259 95.4355 50.355922 96.619521 54.81623 99.512576 C 62.199557 104.30156 63.129369 105.61584 60.519355 107.56922 C 58.730938 108.90771 59.471898 109.74102 65.544746 113.22351 C 69.462048 115.4699 73.652372 117.31417 74.857246 117.32117 C 78.326659 117.34099 78.896275 120.95594 75.574043 121.87 C 72.815396 122.62899 72.888583 122.8144 76.992011 125.4618 C 79.370869 126.99656 83.757739 128.57936 86.740058 128.97937 C 91.879388 129.6687 92.140513 129.92289 91.747871 133.85242 C 91.379392 137.54013 91.848978 138.17434 95.999824 139.5907 C 98.566488 140.46649 103.48164 141.21727 106.9217 141.25867 C 114.08018 141.3448 115.91832 143.07312 112.66779 146.66492 C 110.50251 149.05753 110.62096 149.2035 115.49592 150.11805 C 118.29509 150.64317 123.60386 150.44656 127.29279 149.68055 C 135.79985 147.91402 139.33081 149.82484 134.61506 153.64344 C 130.56504 156.92294 131.54063 157.39273 139.07404 155.78601 C 146.30943 154.24286 149.97363 155.07595 148.84748 158.01062 C 147.80101 160.73767 153.03483 160.63185 160.16193 157.78015 C 165.12195 155.79554 165.87068 155.77528 167.201 157.59461 C 168.90515 159.92518 173.55326 158.7549 177.77912 154.93055 C 179.15454 153.68583 180.41435 152.66687 180.57795 152.66687 C 180.74154 152.66687 183.65336 156.07648 187.04865 160.245 C 190.44395 164.4135 195.39056 169.81351 198.04279 172.245 C 209.09627 182.3785 209.33381 182.77205 209.33381 190.98328 C 209.33381 197.95686 208.876 199.17768 204.33381 204.32898 C 197.37389 212.22224 196.44221 212.66192 186.66584 212.66492 C 179.96263 212.66672 177.60519 212.13761 176.25764 210.33289 C 175.29939 209.04956 173.60057 208.00086 172.48225 208.00086 C 171.36391 208.00086 167.9472 206.02559 164.89045 203.61219 C 160.22605 199.92948 151.5279 195.12151 145.96271 193.15125 C 142.71335 192.00089 116.33319 173.77966 112.94123 170.34265 L 109.21662 166.56922 L 105.42561 169.26648 C 101.4615 172.08918 96.909906 181.35888 98.046699 184.29383 C 98.41019 185.23228 100.6055 187.20021 102.92365 188.66687 C 117.30558 197.76614 139.44114 210.64504 160.66584 222.26062 C 166.5325 225.47124 171.53273 228.67522 171.77717 229.38172 C 172.02162 230.08823 173.05118 230.66687 174.06428 230.66687 C 175.07737 230.66687 176.54361 231.85681 177.32209 233.3114 C 178.15452 234.86682 179.88077 235.82852 181.5135 235.64539 C 183.04038 235.47412 184.97328 236.41792 185.81037 237.74305 C 187.07958 239.75223 186.66945 240.75628 183.33381 243.79187 C 179.55912 247.22703 177.2 251.00093 175.49592 256.33289 C 174.94582 258.0541 173.31666 258.66687 169.28693 258.66687 C 166.28238 258.66687 162.51372 259.4125 160.91193 260.32508 C 159.31015 261.23766 153.60037 261.98905 148.22248 261.99305 C 139.08309 262 138.22587 262.25376 135.10139 265.88172 C 132.60882 268.77594 131.89049 270.89187 132.27717 274.20398 C 132.75788 278.32161 132.47323 278.70662 128.37482 279.47547 C 123.17904 280.45022 118.6647 285.58502 118.6717 290.51258 C 118.67803 294.93832 123.32512 302.66687 125.98029 302.66687 C 128.51639 302.66687 128.50593 305.21858 125.95686 308.58875 C 123.46099 311.88861 123.48076 315.12719 126.02326 320.04383 C 128.18252 324.21938 134.90131 328.51617 136.81623 326.94617 C 137.45139 326.42541 136.8495 327.33366 135.47834 328.96375 C 131.24128 334.00093 135.33241 346.00295 141.59357 346.9032 C 144.26717 347.28762 144.54656 347.98907 144.2049 353.47351 C 143.86404 358.94469 144.27896 359.99713 148.0135 363.13953 C 151.71614 366.25512 153.55406 367.12397 156.02521 366.92664 C 156.40586 366.89625 156.49694 369.19316 156.22639 372.03015 C 155.83131 376.17291 156.40505 377.85921 159.14045 380.59461 C 161.01366 382.46782 163.73539 384.00086 165.18928 384.00086 C 167.43606 384.00086 167.72486 384.66132 167.11701 388.40711 C 166.55264 391.88488 167.15775 393.71177 169.98615 397.07312 C 174.36671 402.27912 179.82396 402.70214 186.24201 398.33289 C 189.69029 395.98538 190.65103 394.39841 190.65803 391.03797 C 190.66523 387.64535 192.06717 385.38085 197.33381 380.25086 C 202.55635 375.1638 203.99982 372.84525 203.99982 369.54578 C 203.99982 367.22929 203.36432 365.33289 202.58771 365.33289 C 201.81111 365.33289 201.54659 364.7342 201.99982 364.00086 C 202.45304 363.26753 204.01798 362.66687 205.47639 362.66687 C 209.99319 362.66687 214.6621 356.32615 214.701 350.13953 C 214.7327 345.09807 215.14 344.479 219.8885 342.29187 C 225.80949 339.5647 228.68892 334.1756 227.3885 328.25476 C 226.41282 323.81253 221.96756 319.16931 217.99982 318.44812 C 216.53316 318.18154 215.33381 317.07129 215.33381 315.98133 C 215.33381 314.89138 214.73315 313.55916 213.99982 313.02039 C 213.26648 312.48162 214.5357 312.03109 216.82014 312.02039 C 223.05371 311.98975 227.99982 307.48415 227.99982 301.8368 C 227.99982 296.768 225.04049 289.97349 222.36115 288.88953 C 221.19067 288.41599 221.10706 287.8632 222.09162 287.10242 C 222.87566 286.4966 223.66366 282.98903 223.84162 279.30945 C 224.11839 273.58631 223.65921 272.14513 220.66779 269.33484 C 218.02396 266.85108 215.81478 266.0859 211.6092 266.19617 C 207.7701 266.29684 204.60097 265.35902 201.38068 263.17078 C 198.81445 261.42696 194.75366 260.00086 192.35725 260.00086 C 189.96081 260.00086 187.99982 259.41373 187.99982 258.69812 C 187.99982 256.22848 193.28327 248.72005 195.58967 247.91101 C 199.0507 246.69695 209.69626 250.32398 212.15021 253.55359 C 213.39739 255.19497 214.96553 255.97121 215.88459 255.4032 C 216.81328 254.82924 218.8492 255.91282 220.8006 258.01844 C 222.95247 260.34033 225.03164 261.3737 226.68146 260.94226 C 228.08555 260.57508 229.97422 261.16529 230.87678 262.25281 C 231.9525 263.54903 233.81892 263.97063 236.29475 263.47547 C 239.05336 262.92374 240.68057 263.43165 242.33185 265.36023 C 243.57531 266.81247 245.26728 268.00086 246.09162 268.00086 C 248.47849 268.00086 255.8702 272.01265 256.9842 273.91297 C 257.54306 274.86627 262.20048 277.5887 267.33381 279.96375 C 289.41023 290.17793 294.19351 292.5383 297.53889 294.86805 C 299.71066 296.38048 303.40848 297.33289 307.1092 297.33289 C 314.91577 297.33289 318.99994 292.84812 318.39631 284.94031 C 318.04527 280.34145 317.45778 279.54118 313.33381 278.0575 C 310.76714 277.1341 302.36583 273.37435 294.66584 269.70203 C 272.34581 259.05705 259.6881 253.19612 254.61506 251.16101 C 251.52004 249.91941 249.8247 248.32604 249.68928 246.5282 C 249.3688 242.27369 246.74615 239.92805 243.28107 240.79773 C 240.46774 241.50382 240.23302 241.17581 240.56428 237.00086 C 240.97296 231.8502 244.71012 224.49806 248.58576 221.21961 C 250.98088 219.19355 251.04861 218.47483 249.48615 211.49305 C 247.67733 203.41034 248.50003 196.00086 251.20685 196.00086 C 254.21133 196.00086 258.35203 201.77675 266.98029 218.00086 L 275.49006 234.00086 L 285.75959 234.38953 C 297.34173 234.82904 304.10357 232.58968 313.14826 225.32117 C 319.31086 220.36878 319.18287 217.72724 312.53303 212.65515 C 302.22439 204.79237 271.1291 170.18374 271.40803 166.88367 C 271.44914 166.39744 270.51767 164.96465 269.33771 163.69812 C 268.15777 162.4316 265.83404 158.97661 264.17365 156.02234 C 261.328 150.9592 261.29413 150.60742 263.57795 149.89539 C 264.91053 149.47994 266.89358 148.6728 267.98615 148.10047 C 269.21931 147.4545 271.29153 148.03465 273.44904 149.62976 C 277.32861 152.49805 289.00866 154.71185 287.51545 152.29578 C 286.06626 149.95096 288.57757 149.34023 293.77131 150.7743 C 299.16666 152.26402 311.22445 149.99362 308.11701 148.07312 C 305.82016 146.65358 309.40768 145.34751 315.77521 145.28601 C 318.46523 145.26003 322.1665 144.37368 323.99982 143.31531 L 327.33381 141.38953 L 324.33381 140.53992 C 322.68381 140.07208 321.33381 139.12358 321.33381 138.4325 C 321.33381 137.74142 320.73316 137.54763 319.99982 138.00086 C 319.26649 138.45408 318.66584 138.25722 318.66584 137.56336 C 318.66584 136.8695 322.71584 136.06163 327.66584 135.76844 C 333.65854 135.4135 337.98053 134.36117 340.59943 132.62195 C 343.68501 130.57279 344.04547 129.91751 342.2674 129.57508 C 339.0718 128.95966 339.43792 126.66687 342.73225 126.66687 C 349.12247 126.66687 360.36153 117.1614 357.43342 114.23328 C 356.57604 113.37591 358.13131 111.65089 361.93732 109.23719 C 368.24439 105.23736 370.49483 101.00624 367.94709 97.936404 C 366.66242 96.388463 366.74586 96.000858 368.36506 96.000858 C 370.18246 96.000858 378.66584 87.639607 378.66584 85.848514 C 378.66584 85.449097 376.92298 85.503693 374.79279 85.971561 C 370.03718 87.016069 367.59688 84.20127 371.4217 82.082889 C 378.05471 78.4092 387.48622 65.042512 381.94514 67.168826 C 378.43247 68.516764 378.63332 65.517833 382.43928 59.762576 C 387.43619 52.206371 388.42661 49.332889 386.03693 49.332889 C 385.00323 49.332889 383.8024 49.906975 383.36896 50.608279 C 382.93554 51.309584 381.66886 51.532736 380.55256 51.104373 C 378.81536 50.437749 378.89557 49.918851 381.11115 47.496951 C 384.72424 43.547383 389.68165 33.332889 387.98615 33.332889 C 387.21582 33.332889 383.03581 34.828191 378.69514 36.655154 C 371.25234 39.787785 356.75957 42.769021 339.83771 44.649295 C 330.78944 45.654697 329.308 43.788631 333.50764 36.670779 C 335.0231 34.102353 335.75507 32.001964 335.13264 32.004764 C 333.62667 32.011396 325.43654 37.038763 323.05842 39.416873 C 320.21925 42.256048 308.94822 44.99922 293.61311 46.582889 C 277.53496 48.243293 270.83154 51.127093 265.97248 58.469608 C 261.77303 64.815405 260.1174 70.481274 259.82209 79.518436 C 259.69532 83.397606 259.06382 86.245829 258.41779 85.846561 C 257.77179 85.44729 257.5251 86.679798 257.87092 88.586795 C 258.21672 90.493791 258.00628 91.749216 257.40217 91.375858 C 256.79807 91.0025 255.99086 91.891037 255.6092 93.350467 C 255.15919 95.071287 255.43245 95.68427 256.38654 95.094608 C 257.1957 94.594516 256.45019 96.161651 254.73029 98.577029 C 251.3728 103.29219 245.76224 106.24431 239.33381 106.67859 C 230.88618 107.24929 229.63357 106.77887 228.13068 102.46765 C 225.97917 96.295838 226.25797 93.102009 230.65998 73.578983 C 234.37086 57.121208 235.36268 46.087719 232.99982 47.541873 C 232.44982 47.880354 231.99982 47.521609 231.99982 46.744998 C 231.99982 45.968387 233.64918 45.32837 235.66584 45.32117 C 240.16869 45.305174 253.17874 39.40802 253.90998 37.051639 C 256.00984 30.28495 255.90261 28.2856 253.40217 27.631717 C 252.85795 27.489403 252.43097 27.412971 252.10139 27.430545 z M 226.05256 194.92078 C 227.47965 194.94308 229.5311 196.69784 232.56232 200.23914 C 236.98045 205.40073 237.33483 206.46028 237.34553 214.57312 C 237.35371 220.85123 236.52349 225.09528 234.41779 229.55164 C 231.76264 235.17082 230.98236 235.81601 226.32014 236.26062 C 222.77094 236.5991 219.21177 235.76608 214.91389 233.5907 C 207.34334 229.75888 207.71249 230.11001 207.32404 226.37586 C 207.14997 224.70265 206.93131 222.88289 206.83771 222.33289 C 206.74413 221.78289 205.50134 221.33289 204.07795 221.33289 C 202.65456 221.33289 201.15137 220.78405 200.73615 220.11219 C 199.60921 218.28878 213.50685 206.66687 216.81428 206.66687 C 220.37908 206.66687 222.40662 204.29889 223.49201 198.87195 C 224.0204 196.23001 224.79336 194.9011 226.05256 194.92078 z " />
    <path
       id="path3264"
       style="fill:#0000ff;stroke-width:1.33333"
       d="M 167.79279 262.70984 C 163.73337 262.59916 160.16048 266.23334 160.24006 271.9989 C 160.28036 274.91287 160.72183 277.04541 161.22053 276.73719 C 161.71924 276.42898 162.9993 276.7277 164.06428 277.40125 C 166.89382 279.19124 169.68486 278.9386 173.03693 276.5907 C 176.7367 273.99928 176.87204 268.87113 173.33381 265.33289 C 171.58498 263.58407 169.63799 262.76015 167.79279 262.70984 z M 191.96662 265.33289 C 189.05211 265.33289 186.66584 265.89312 186.66584 266.57703 C 186.66584 267.26095 185.56287 268.17061 184.21467 268.59851 C 180.68667 269.71826 181.07472 278.67499 184.71662 280.1825 C 187.90947 281.50414 197.22524 280.41624 199.60139 278.44422 C 201.8708 276.56076 201.78804 274.08042 199.29865 269.26648 C 197.56368 265.91142 196.48612 265.33289 191.96662 265.33289 z M 147.56037 265.42078 C 147.24981 265.40947 146.91577 265.46407 146.58576 265.5907 C 145.52974 265.99594 144.36648 266.30288 143.99982 266.27234 C 143.63315 266.24184 142.04251 266.90644 140.46467 267.75086 C 136.64432 269.79545 137.05895 276.29284 141.24201 279.92078 C 144.5214 282.76498 152.96852 282.92723 152.33381 280.13367 C 152.15048 279.32676 152.52972 278.66687 153.17756 278.66687 C 154.92639 278.66687 155.71342 272.86531 154.43342 269.40515 C 153.7471 267.54986 152.58118 266.67056 151.40998 267.12 C 150.36207 267.5221 149.28038 267.17652 149.00568 266.35242 C 148.81683 265.78587 148.2436 265.44566 147.56037 265.42078 z M 212.60725 270.86023 C 211.52177 270.85989 210.39143 271.46509 208.86701 272.62 C 206.70327 274.25926 206.59343 275.07239 207.97053 279.245 C 209.29719 283.2648 210.14697 284.00086 213.46467 284.00086 C 216.36175 284.00086 217.79044 283.1232 218.91584 280.6532 C 220.22654 277.77652 220.00133 276.84119 217.32014 273.98719 C 215.32423 271.86265 214.00286 270.86067 212.60725 270.86023 z M 130.52131 285.07312 C 127.60099 285.06755 126.57635 286.34302 125.48029 289.48719 C 123.97641 293.80123 124.60234 296.6097 126.76936 295.27039 C 127.45764 294.84502 128.95854 295.43419 130.10529 296.58094 C 132.45475 298.9304 138.66584 299.41953 138.66584 297.25476 C 138.66584 296.47814 139.26648 296.21365 139.99982 296.66687 C 140.77982 297.14894 141.33381 295.76496 141.33381 293.33289 C 141.33381 290.49825 140.83687 289.48218 139.77326 290.13953 C 138.72631 290.78657 138.49245 290.37928 139.06037 288.8993 C 139.66043 287.33558 139.0464 286.50741 136.95295 286.05164 C 134.10034 285.43075 132.051 285.07604 130.52131 285.07312 z M 177.82795 285.8993 C 169.30241 286.06751 165.49397 291.69611 170.33381 297.3739 C 172.95436 300.44815 177.6157 300.00793 181.73225 296.29773 C 183.2772 294.90528 183.98869 292.68819 183.73225 290.06726 C 183.37398 286.4055 182.86636 285.98959 178.66584 285.8993 C 178.38114 285.89318 178.10297 285.89387 177.82795 285.8993 z M 158.04475 285.90711 C 157.62221 285.90711 156.9766 286.14428 156.08771 286.62 C 154.66927 287.37913 152.23376 288.00086 150.6756 288.00086 C 149.11747 288.00086 148.21262 288.59956 148.66584 289.33289 C 149.11907 290.06622 148.85456 290.66687 148.07795 290.66687 C 147.30134 290.66687 146.66584 292.3758 146.66584 294.46375 C 146.66584 297.083 147.59596 298.70766 149.66584 299.70594 C 153.96158 301.77768 159.41338 301.64648 161.25568 299.42664 C 163.33162 296.9253 162.5709 287.21946 160.33381 287.66687 C 159.41714 287.85021 158.66584 287.37913 158.66584 286.62 C 158.66584 286.14428 158.46728 285.90711 158.04475 285.90711 z M 198.24982 289.33289 C 194.84475 289.33289 193.12502 290.29318 190.73615 293.5243 C 189.03222 295.82897 188.27659 297.31879 189.05646 296.8368 C 189.83634 296.35482 190.82051 297.05341 191.24396 298.38758 C 191.79723 300.13074 193.54595 300.90291 197.45685 301.13367 C 200.97233 301.34109 202.59352 300.96197 202.03693 300.0614 C 201.56301 299.29459 201.72122 298.66687 202.3885 298.66687 C 203.40291 298.66687 203.66763 294.13172 202.87482 290.33289 C 202.76002 289.78289 200.67858 289.33289 198.24982 289.33289 z M 215.05451 292.39344 C 212.48656 292.40997 210.76877 294.76824 209.88459 299.48133 C 208.85 304.99612 211.22174 308.52335 215.24006 307.44422 C 216.75796 307.03658 218.7281 306.69447 219.61896 306.68445 C 221.87224 306.65915 224.34531 301.62847 223.08185 299.63953 C 222.50916 298.73803 222.03254 297.42288 222.02131 296.71765 C 222.01061 296.01245 220.40745 294.54078 218.46076 293.44812 C 217.19497 292.73765 216.05936 292.38697 215.05451 292.39344 z M 138.65998 306.66687 C 134.82338 306.66687 132.94671 307.43298 131.40803 309.62976 C 128.56176 313.69337 128.79301 315.58116 132.59748 319.38562 C 135.85974 322.64789 141.95744 323.4743 142.49396 320.72742 C 142.64374 319.96058 143.00679 316.48418 143.3006 313.00086 L 143.83576 306.66687 L 138.65998 306.66687 z M 183.16584 308.00086 C 180.87418 308.00086 177.06707 308.38584 174.7049 308.85828 C 170.75959 309.64735 170.47528 310.04408 171.21271 313.73133 C 172.46468 319.99113 174.54558 321.70137 179.86115 320.83875 C 182.41971 320.42357 185.13218 319.01443 185.8885 317.70789 C 186.6448 316.40137 187.2795 313.68354 187.29865 311.66687 C 187.32935 308.44168 186.83084 308.00086 183.16584 308.00086 z M 200.74592 308.50672 C 198.01067 308.58276 194.42228 310.52604 195.30842 311.95984 C 195.70236 312.59726 195.04738 314.09588 193.85334 315.28992 C 192.6593 316.48396 191.90302 317.63051 192.17365 317.83875 C 197.67449 322.07153 198.86742 322.36245 202.75568 320.42273 C 205.47193 319.06768 206.66584 317.48191 206.66584 315.23523 L 206.66584 311.00086 C 206.66584 310.45086 206.21584 309.94896 205.66584 309.88562 C 205.11584 309.82232 203.66334 309.32524 202.43732 308.78211 C 201.96244 308.57173 201.37713 308.48917 200.74592 308.50672 z M 160.23615 310.61414 C 157.97469 310.58688 155.19817 311.73117 152.54084 314.0575 L 148.66584 317.45008 L 151.89826 320.12586 C 155.65777 323.23952 162.37315 323.10431 164.39435 319.8739 C 165.12628 318.70407 165.32633 316.15276 164.83771 314.20594 C 164.244 311.84042 162.49761 310.6414 160.23615 310.61414 z M 213.46271 324.02625 C 211.34755 324.00644 209.35747 324.5104 208.2674 325.60047 C 206.17547 327.69239 206.21477 334.26596 208.33381 336.67273 C 210.4073 339.02781 217.87893 339.24413 219.67365 337.00086 C 222.57265 333.37732 222.9374 329.17619 220.5799 326.57117 C 219.10636 324.94292 216.18221 324.05172 213.46271 324.02625 z M 173.77717 326.63172 C 170.69974 326.64343 164.69951 328.33501 163.27131 330.21961 C 160.79129 333.49219 160.86112 338.00278 163.42951 340.57117 C 166.05434 343.196 169.25633 343.23892 172.88654 340.69617 C 175.6799 338.73964 177.97115 329.33289 175.65412 329.33289 C 175.02476 329.33289 174.93659 328.64268 175.45881 327.79773 C 175.97146 326.96824 175.176 326.62639 173.77717 326.63172 z M 191.40998 328.04969 C 189.23332 328.05656 186.89572 328.49717 185.22834 329.38953 C 182.33927 330.9357 182.99019 333.07789 187.94318 338.33289 C 190.91848 341.48962 192.16031 341.79003 196.93928 340.50867 C 199.41983 339.84358 199.75322 339.0662 199.08381 335.52625 C 198.64763 333.21964 197.70217 330.58354 196.98225 329.66687 C 196.13728 328.59101 193.87686 328.0419 191.40998 328.04969 z M 148.45685 328.78015 C 147.08914 328.80844 145.35771 329.30384 143.31037 330.28015 C 138.52397 332.56263 138.16183 333.31152 139.47639 338.2118 C 140.23641 341.04495 141.23123 341.22732 150.33381 340.19031 C 151.25048 340.08591 151.99982 339.06406 151.99982 337.92078 C 151.99982 336.7775 152.60048 336.21364 153.33381 336.66687 C 154.07732 337.12638 154.6577 336.12973 154.64631 334.41297 C 154.62991 331.93612 154.37365 331.72386 153.33381 333.33289 C 152.27824 334.96626 152.03799 334.80902 152.02131 332.47547 C 152.0035 329.98346 150.73637 328.73301 148.45685 328.78015 z M 182.74592 343.42469 C 181.96069 343.43852 181.17781 344.15686 179.66779 345.66687 C 176.95144 348.38323 175.36767 355.19428 176.87873 357.66687 C 177.85171 359.25903 183.11638 358.74674 185.66584 356.8114 C 188.83251 354.40757 188.64341 347.81006 185.326 344.96961 C 184.13278 343.94794 183.43876 343.41248 182.74592 343.42469 z M 204.9549 344.16297 C 200.66189 344.05689 196.68547 347.21834 196.26545 351.47547 C 195.9539 354.63317 196.54222 355.83517 198.91389 356.89344 C 202.91936 358.68074 206.38996 357.66986 208.27912 354.16687 C 210.99976 349.12208 210.42506 345.32362 206.80451 344.41492 C 206.18773 344.26012 205.56819 344.17812 204.9549 344.16297 z M 157.0799 346.03992 C 152.95507 345.96182 149.35369 348.12068 148.47639 351.61609 C 146.86731 358.0272 155.70875 362.38989 162.71271 358.64148 C 164.52103 357.67369 165.20145 355.95958 165.07795 352.67469 C 164.92969 348.7307 164.28434 347.86093 160.61896 346.65125 C 159.43024 346.25893 158.23485 346.06179 157.0799 346.03992 z M 170.75178 362.75672 C 168.49386 362.67315 163.92694 365.58102 163.52717 368.22156 C 163.37905 369.19988 162.73303 370.84014 162.09162 371.86805 C 160.56462 374.31518 164.62006 377.33289 169.43537 377.33289 C 171.72628 377.33289 173.76491 376.2066 175.06428 374.22351 C 176.27578 372.37456 176.65813 370.39713 176.00764 369.34461 C 175.40602 368.37119 175.26119 366.66602 175.68732 365.55555 C 176.25081 364.08708 175.85518 363.77065 174.23225 364.39344 C 173.00493 364.8644 171.99982 364.6682 171.99982 363.95789 C 171.99982 363.14476 171.50442 362.78457 170.75178 362.75672 z M 191.69514 363.21961 C 189.71747 363.23251 187.99982 364.06881 187.99982 365.57898 C 187.99982 366.34842 186.93133 366.698 185.62482 366.35633 C 181.96708 365.39981 183.32999 373.92437 187.12873 375.76258 C 191.03669 377.65363 191.42998 377.62686 193.33381 375.33289 C 194.24673 374.23289 195.8197 373.33289 196.8299 373.33289 C 199.5669 373.33289 199.06232 367.43773 196.09553 364.75281 C 194.92907 363.69719 193.23332 363.20957 191.69514 363.21961 z M 178.50178 381.8114 C 176.26907 381.8103 174.66584 383.94389 174.66584 387.88953 C 174.66584 395.56187 179.18905 398.35431 184.22834 393.79383 C 187.41634 390.90872 187.3035 389.15547 183.65803 384.91297 C 181.85179 382.81092 180.02942 381.81216 178.50178 381.8114 z " />
    <path
       style="fill:#d45500;stroke-width:1.33333"
       d="m 183.20657,257.89092 c -0.42169,-3.39998 -0.14528,-4.47108 0.97513,-3.77863 0.97747,0.60412 1.207,0.38932 0.61228,-0.57295 C 184.27073,252.6927 184.4592,252 185.2128,252 c 0.7536,0 0.99482,-0.97815 0.53606,-2.17366 -0.65232,-1.69992 -1.35752,-1.19136 -3.2356,2.33334 -2.71388,5.09325 -3.2037,9.17365 -1.10124,9.17365 0.77662,0 0.98391,0.69271 0.46066,1.53935 -0.56524,0.91456 -0.36818,1.1789 0.48553,0.65129 0.79029,-0.48843 1.17205,-3.02331 0.84836,-5.63305 z"
       id="path3266" />
    <path
       id="path3284"
       style="fill:#008080;stroke-width:1.33333"
       d="M 107.48225 173.33289 C 106.71281 173.33289 102.66584 182.18477 102.66584 183.86805 C 102.66584 184.67388 103.83717 185.33289 105.2674 185.33289 C 106.69762 185.33289 108.34698 186.12555 108.93342 187.09461 C 109.51986 188.06365 112.83213 190.20918 116.29475 191.86219 C 119.75737 193.5152 124.85802 196.41294 127.62873 198.30164 C 130.39943 200.19034 135.96649 203.31705 139.99982 205.2489 C 144.03315 207.18077 150.32441 210.53973 153.98029 212.71375 C 160.55933 216.62609 167.19961 219.39939 170.2381 219.50281 C 171.11108 219.53251 171.76068 217.87725 171.701 215.7782 C 171.63153 213.33512 170.87804 212.00086 169.56818 212.00086 C 168.4542 212.00086 166.5256 211.0783 165.28107 209.95203 C 160.2814 205.42738 140.44144 194.49708 136.56818 194.13367 C 135.78038 194.05977 133.1504 191.89956 130.72443 189.33289 C 128.29846 186.76622 126.72909 185.41622 127.23615 186.33289 C 127.74321 187.24956 127.52254 188.00086 126.74592 188.00086 C 125.96931 188.00086 125.33381 187.06406 125.33381 185.92078 C 125.33381 184.7775 124.7838 184.18205 124.11311 184.59656 C 123.44241 185.01108 122.69306 184.88887 122.44709 184.32508 C 121.99705 183.2935 108.43669 173.33289 107.48225 173.33289 z M 198.57795 227.87 C 196.21123 227.76131 190.66268 230.82614 190.73615 232.66687 C 190.76545 233.40021 192.19379 235.15856 193.90998 236.57508 C 197.00134 239.12664 197.0067 239.1714 194.39045 241.28992 C 191.88286 243.32042 192.03085 243.40018 197.32404 242.89539 C 200.38994 242.603 203.43441 242.89975 204.08967 243.55555 C 205.81406 245.27993 211.99982 245.5551 211.99982 243.90711 C 211.99982 243.13871 212.70241 242.94326 213.56037 243.47351 C 214.61871 244.1276 214.83769 243.70158 214.24201 242.1493 C 213.75913 240.89091 213.83532 240.15229 214.41193 240.50867 C 214.98855 240.86503 216.33132 240.6062 217.39631 239.9325 C 219.00256 238.91636 218.9354 238.70334 216.99982 238.6864 C 215.71649 238.6757 214.66584 238.03137 214.66584 237.25476 C 214.66584 236.47814 213.97342 236.27058 213.12678 236.79383 C 212.23306 237.34619 211.94718 237.164 212.44514 236.35828 C 213.13645 235.23973 209.02507 233.15624 206.78693 233.49109 C 206.48619 233.53599 205.69166 232.59128 205.02131 231.39344 C 204.2689 230.04896 202.86332 229.51388 201.34748 229.995 C 199.99695 230.42364 198.44775 230.05904 197.90607 229.1825 C 197.24241 228.10867 197.48975 227.94001 198.66584 228.66687 C 199.78699 229.35978 200.08931 229.22401 199.50959 228.28601 C 199.3454 228.02035 199.01623 227.89012 198.57795 227.87 z M 242.33381 248.83875 C 241.86646 248.83266 241.26412 248.89238 240.57404 249.0243 C 237.57744 249.59713 237.25728 250.24558 237.51545 255.23328 C 237.78981 260.53329 237.98542 260.77474 241.56818 260.2489 C 243.63871 259.94501 245.33381 260.29219 245.33381 261.01844 C 245.33381 261.74469 248.20586 263.57455 251.71662 265.08484 C 255.22738 266.59512 259.22011 269.0676 260.58967 270.58094 C 261.95923 272.09428 263.81421 273.33289 264.71076 273.33289 C 265.60732 273.33289 267.0819 274.2273 267.98811 275.31922 C 268.89433 276.41114 270.12682 277.0003 270.72639 276.62976 C 271.32596 276.2592 272.19783 276.5757 272.66584 277.33289 C 273.13386 278.09014 274.07692 278.36418 274.75959 277.94226 C 275.44224 277.52035 275.99982 277.84696 275.99982 278.66687 C 275.99982 279.48677 276.56287 279.80944 277.25178 279.38367 C 277.9407 278.9579 282.29201 280.69481 286.91975 283.24305 C 296.88704 288.73145 297.31347 288.79289 301.08186 285.28211 C 304.15747 282.41674 304.89229 280.00086 302.68732 280.00086 C 301.96501 280.00086 298.51371 278.27622 295.01936 276.16883 C 291.52502 274.06141 286.94048 271.92932 284.8299 271.4325 C 282.71932 270.9357 277.80908 268.4947 273.91975 266.00672 C 265.49313 260.61628 255.66544 256.00086 252.61506 256.00086 C 251.40618 256.00086 250.10582 254.80692 249.72443 253.34851 C 249.34305 251.89009 248.55236 250.99162 247.96857 251.35242 C 246.48742 252.26783 242.54577 250.607 243.3006 249.38562 C 243.51327 249.04152 243.11271 248.8489 242.33381 248.83875 z M 227.47639 251.05359 C 227.31328 251.0588 227.05853 251.36597 226.69514 251.95398 C 226.04265 253.00973 225.80428 254.3514 226.16584 254.9364 C 227.17167 256.56388 227.41421 256.25323 227.65803 253.01648 C 227.75863 251.68086 227.71478 251.04599 227.47639 251.05359 z M 312.40607 282.42859 C 311.6011 282.46896 310.33053 283.54304 307.66584 285.92859 C 304.91584 288.39051 302.66584 290.71942 302.66584 291.10437 C 302.66584 291.69443 304.82633 292.51866 308.10139 293.17859 C 308.52355 293.26369 310.26866 291.84234 311.98029 290.02039 C 314.35159 287.49624 314.80298 286.08332 313.87873 284.08094 C 313.37594 282.99165 313.03217 282.39719 312.40607 282.42859 z " />
    <path
       id="path3298"
       style="fill:#ffcc00;stroke-width:1.33333"
       d="M 328.66584 44.860233 L 321.80842 49.772342 C 314.16938 55.244717 304.9905 58.962171 301.97639 57.805545 C 298.89943 56.624808 299.60404 58.005465 304.66584 63.067264 C 307.23251 65.633927 309.33381 68.408463 309.33381 69.233279 C 309.33381 71.280252 303.5332 73.324477 297.5799 73.375858 C 293.43782 73.411608 293.00038 73.672534 294.79475 75.041873 C 297.59985 77.182516 301.64108 85.087653 300.7049 86.60242 C 299.44065 88.648013 292.62711 89.506451 288.89826 88.088748 C 285.33981 86.735825 284.23584 87.67059 286.56232 90.067264 C 287.2386 90.76393 288.22199 93.66346 288.74592 96.512576 L 289.69709 101.69422 L 282.34357 101.08484 L 274.98811 100.47351 L 276.16193 104.5614 C 278.74641 113.57297 275.97617 115.73866 267.5135 111.32508 C 262.89853 108.9182 261.58257 108.78088 263.7342 110.9325 C 264.6142 111.8125 265.33381 114.8138 265.33381 117.60047 C 265.33381 121.81916 264.87687 122.66687 262.60139 122.66687 C 261.09831 122.66687 258.09701 121.75056 255.93342 120.63172 L 251.99982 118.59851 L 251.99982 123.29969 C 251.99982 127.27976 251.5398 128.0031 248.99982 128.02039 C 246.57391 128.03689 246.38255 128.28773 247.99982 129.33289 C 251.241 131.42751 253.11735 130.86859 253.58967 127.66687 C 253.96374 125.13116 254.62842 125.69794 257.87873 131.33289 C 268.03154 148.93451 271.52381 151.74028 262.12092 134.74109 L 256.09748 123.85047 L 260.87092 124.61023 C 263.49646 125.0275 266.16451 125.68976 266.80061 126.08289 C 267.4367 126.47602 267.7986 124.06739 267.60334 120.73133 C 267.39749 117.21411 267.82485 114.67335 268.62287 114.6825 C 269.37977 114.6915 277.05282 121.59183 285.67365 130.01648 C 296.63244 140.72588 302.24944 145.30102 304.34162 145.22742 C 306.32228 145.15772 306.65761 144.87075 305.33381 144.37781 C 300.63965 142.62983 274.77146 118.3893 274.69514 115.66687 C 274.67974 115.11687 275.56584 114.66687 276.66584 114.66687 C 277.77695 114.66687 278.66584 113.48234 278.66584 112.00086 C 278.66584 110.53419 279.01856 109.33289 279.44904 109.33289 C 279.87951 109.33289 284.71772 113.17432 290.19904 117.87 C 303.9131 129.61836 315.99982 137.79949 315.99982 135.33094 C 315.99982 134.26079 313.3337 132.02233 310.076 130.35828 C 304.11676 127.31426 278.83379 106.86546 278.72443 105.00086 C 278.69213 104.45086 281.09167 104.00086 284.05646 104.00086 C 288.22003 104.00086 291.02793 105.16938 296.39045 109.13562 C 305.93371 116.19405 316.98428 122.23137 326.09553 125.36609 C 334.82486 128.36942 335.99982 128.52386 335.99982 126.66687 C 335.99982 125.93354 335.54982 125.45075 334.99982 125.59461 C 332.27983 126.30606 318.22701 120.7553 309.33381 115.45594 C 296.08237 107.55954 292.44547 104.19871 291.50959 98.989139 C 290.74932 94.757042 290.80457 94.695152 293.69709 96.578983 C 297.72552 99.202589 324.31176 110.48353 331.88459 112.78211 C 335.24764 113.8029 340.09917 114.61491 342.66584 114.5868 C 346.03264 114.5499 343.99129 113.65992 335.33381 111.38953 C 322.89987 108.12878 297.78374 97.597363 292.46662 93.41492 L 289.42561 91.022342 L 296.46857 90.19617 C 301.58691 89.594611 306.21777 90.124348 313.4217 92.135623 C 335.11072 98.190986 358.66584 101.65619 358.66584 98.791873 C 358.66584 98.127194 357.50371 97.886843 356.08186 98.25867 C 352.33394 99.238772 336.22517 96.42497 319.201 91.815311 C 305.13512 88.006674 304.29307 87.579396 302.201 83.192264 C 300.99039 80.653598 299.99982 78.050143 299.99982 77.407108 C 299.99982 76.764073 302.77197 74.896822 306.15998 73.256717 C 312.01148 70.424052 313.13065 70.334697 328.49396 71.506717 C 347.88489 72.985992 375.99982 70.910136 375.99982 67.998904 C 375.99982 67.458393 371.0556 67.928369 365.0135 69.041873 C 355.96296 70.7098 350.29818 70.834304 332.84943 69.748904 C 312.79287 68.501286 311.53797 68.260658 309.19709 65.215701 C 307.83754 63.447213 306.71314 61.699556 306.69709 61.332889 C 306.68109 60.966223 310.71804 60.684817 315.66779 60.705936 C 342.50752 60.820444 374.66584 56.417813 374.66584 52.629764 C 374.66584 51.56526 372.37251 51.854486 367.33381 53.555545 C 363.18246 54.957029 352.62346 56.595822 342.99982 57.330936 C 310.32619 59.826746 305.73232 59.653223 315.06037 56.280154 C 317.4764 55.406512 321.5264 52.480204 324.06037 49.776248 L 328.66584 44.860233 z M 220.39435 45.356326 C 218.02303 45.394106 215.57256 45.926838 213.34553 47.053592 C 207.616 49.952401 208.76991 57.332889 214.95295 57.332889 C 217.12925 57.332889 216.58505 58.440429 211.77717 63.787967 C 206.84201 69.277035 198.66584 83.165164 198.66584 86.059451 C 198.66584 86.550739 199.71649 86.514041 200.99982 85.979373 C 202.28315 85.444707 205.81909 84.447062 208.85725 83.760623 C 213.08732 82.804886 215.55467 83.002001 219.39435 84.606326 C 222.15213 85.758596 224.61415 86.495904 224.86506 86.244998 C 225.60452 85.505531 231.99982 55.824482 231.99982 53.131717 C 231.99982 48.397862 226.4544 45.259778 220.39435 45.356326 z M 95.452949 46.912967 C 95.353751 46.917168 95.282705 46.940633 95.240058 46.983279 C 94.310112 47.913224 110.007 56.000858 112.74201 56.000858 C 114.04492 56.000858 114.74425 56.365814 114.2967 56.813358 C 112.14822 58.961837 54.799299 56.4558 45.999824 53.828983 C 44.164233 53.281022 43.748043 53.469914 44.665839 54.432498 C 46.737376 56.605126 67.46606 58.895921 93.443183 59.823123 L 117.09162 60.666873 L 113.89631 64.666873 L 110.70295 68.666873 L 87.685371 68.666873 C 75.025498 68.666873 61.065835 68.221892 56.665839 67.678592 C 51.680601 67.063026 49.43424 67.152106 50.702949 67.912967 C 54.428382 70.147154 85.356599 71.837195 100.40803 70.629764 C 108.33232 69.994077 115.68297 69.743238 116.74201 70.07117 C 123.00062 72.009159 122.9913 72.002014 121.46857 73.836795 C 117.30802 78.849956 65.943106 83.615866 53.75373 80.119998 C 50.647592 79.22917 49.353057 79.358118 48.874824 80.604373 C 47.425456 84.381364 80.175994 83.980388 107.87873 79.881717 C 116.51501 78.603964 117.90626 78.687451 118.94514 80.543826 C 119.59867 81.711632 121.30202 82.666873 122.73225 82.666873 C 124.16247 82.666873 125.33381 83.163694 125.33381 83.772342 C 125.33381 85.191452 105.84381 88.888632 88.665839 90.72742 C 68.454447 92.890917 63.105213 93.726205 65.658027 94.319217 C 70.623128 95.472599 111.69792 89.889609 126.99982 85.981326 C 131.59082 84.808735 131.82996 86.957829 127.5799 91.207889 C 123.8049 94.982894 89.232722 103.80967 73.585761 104.99305 C 67.995704 105.41581 64.511006 106.14475 65.843574 106.61219 C 71.172403 108.48144 95.343247 104.19556 118.05061 97.354373 C 123.91469 95.587666 128.5313 95.124035 135.0506 95.647342 C 139.97296 96.042462 143.98845 96.732901 143.97443 97.182498 C 143.93123 98.565447 102.62457 113.06186 91.665839 115.53992 C 85.982512 116.82506 81.333808 118.35429 81.333808 118.93836 C 81.333808 120.38061 81.486271 120.35935 93.111152 117.37586 C 103.61437 114.68023 133.08641 104.3185 138.51545 101.41297 C 142.32224 99.375638 142.42912 99.528482 141.64435 105.8368 L 141.00178 111.00476 L 123.38068 119.47937 C 113.68858 124.14007 103.45723 128.43205 100.64436 129.01648 C 95.481527 130.08916 92.520673 133.33289 96.704902 133.33289 C 99.51321 133.33289 113.39314 127.07232 132.88068 117.01453 C 149.97832 108.19021 153.3137 107.49726 152.2635 112.99109 C 151.44057 117.29598 145.76707 122.78724 131.95685 132.64539 C 126.43319 136.58834 120.73384 141.17726 119.29084 142.84265 C 115.35997 147.37939 138.2887 130.9868 146.32795 123.51258 C 149.71758 120.36119 151.92878 119.46439 156.53498 119.37781 L 162.41389 119.26844 L 158.68537 123.96765 C 156.63466 126.5523 151.02743 132.83211 146.22443 137.92273 C 141.42143 143.01334 137.77906 147.64288 138.13068 148.2118 C 138.48229 148.78073 141.83393 145.81678 145.57795 141.6239 C 149.32198 137.43103 154.25864 131.89956 156.54865 129.33289 C 158.83868 126.76623 162.05191 122.93477 163.68928 120.81922 C 165.78795 118.10763 166.66584 117.62137 166.66584 119.17078 C 166.66584 120.37963 167.35786 122.47579 168.20295 123.82898 C 169.49013 125.89007 168.6255 128.13462 162.87482 137.65515 C 159.09927 143.90579 154.48827 150.0168 152.62873 151.23523 C 150.76918 152.45364 149.63703 154.08015 150.1131 154.85047 C 151.37659 156.89483 157.06573 150.15949 165.90217 136.15515 C 170.12075 129.46938 174.11722 124.00086 174.78498 124.00086 C 175.45276 124.00086 176.01301 121.75085 176.02912 119.00086 C 176.04522 116.25086 177.22633 111.42602 178.65412 108.28015 C 180.08189 105.1343 180.60746 102.95687 179.82209 103.44226 C 177.53488 104.85584 174.66584 112.8535 174.66584 117.81531 C 174.66584 122.63796 172.0795 124.87938 169.49592 122.29578 C 168.67321 121.47309 167.99982 119.35582 167.99982 117.5907 C 167.99982 115.05624 167.50852 114.58412 165.66584 115.34461 C 164.38251 115.87425 161.32709 116.78677 158.87482 117.3739 L 154.41584 118.44226 L 154.87873 112.62586 L 155.34162 106.8075 L 149.4842 107.61023 L 143.62482 108.41297 L 144.55842 103.44617 C 145.07104 100.71363 145.81841 97.619093 146.22053 96.57117 C 146.79185 95.082339 145.53678 94.661344 140.47639 94.645389 C 130.70269 94.614579 129.41718 93.22312 133.82795 87.440311 L 137.46857 82.666873 L 133.56818 82.666873 C 127.48167 82.666873 121.33381 81.138623 121.33381 79.625858 C 121.33381 78.870078 122.86355 76.244425 124.7342 73.791873 L 128.13654 69.332889 L 124.82209 69.332889 C 122.99918 69.332889 119.92302 68.730655 117.98811 67.994998 L 114.47053 66.659061 L 117.56818 62.737186 C 119.27203 60.580087 121.41714 58.781666 122.33381 58.741092 C 123.25048 58.700517 123.99982 58.031375 123.99982 57.254764 C 123.99982 56.478153 123.47157 56.16827 122.826 56.567264 C 121.22764 57.555105 105.69697 52.387352 100.2635 49.059451 C 98.144329 47.761502 96.147331 46.883562 95.452949 46.912967 z M 302.93537 76.293826 C 301.89674 76.328431 301.88365 76.608866 302.66584 77.106326 C 304.66462 78.377517 334.59029 83.604506 344.66584 84.442264 C 356.91744 85.460955 366.66584 85.265473 366.66584 84.000858 C 366.66584 83.211836 361.82143 82.666873 354.79865 82.666873 C 348.27154 82.666873 335.82217 81.420841 327.13264 79.897342 C 312.46981 77.326567 305.22036 76.217695 302.93537 76.293826 z M 219.07404 105.64344 C 214.43751 105.73454 210.88128 109.33924 202.24201 121.61023 C 198.77901 126.52898 194.62467 131.47898 193.00959 132.61023 C 189.5126 135.0596 182.51099 135.31085 180.2674 133.06726 C 177.7477 130.54757 178.23917 137.51024 181.11506 145.07898 C 186.26155 158.62344 198.34231 171.43576 218.3006 184.51453 C 223.59909 187.98666 230.64844 193.93034 233.96662 197.72351 C 239.78681 204.37687 240.59035 206.65442 240.04475 214.96961 C 239.63696 221.18453 241.61473 222.70453 245.96662 219.52234 C 248.25722 217.84742 248.29972 217.27562 246.53693 211.85633 C 244.51894 205.65237 245.09766 195.70186 247.62482 193.17469 C 250.05522 190.74429 254.46408 193.22484 258.72834 199.42273 C 260.96514 202.67381 263.36617 205.33289 264.06428 205.33289 C 265.84712 205.33289 265.69076 204.59324 262.64045 198.61414 C 259.44166 192.34403 260.86168 191.64925 264.66584 197.6239 C 266.13251 199.92738 268.08315 202.05443 268.99982 202.35047 C 271.55019 203.17415 270.98476 198.82981 267.89045 193.82312 C 266.36397 191.35325 265.61462 189.33701 266.22443 189.34265 C 266.83425 189.34765 268.70098 191.74896 270.37287 194.67664 C 273.67415 200.45755 276.78923 201.94541 275.24006 197.00086 C 274.7231 195.35086 273.17472 192.55773 271.79865 190.79578 C 270.4226 189.03382 269.64991 187.23943 270.08186 186.8075 C 270.51378 186.37555 271.39758 186.97182 272.0467 188.13172 C 274.64328 192.77156 278.49872 196.60591 279.53107 195.57703 C 280.13223 194.97788 279.28238 192.15949 277.64436 189.31336 C 273.4435 182.0142 273.94832 181.27385 278.67561 187.79969 C 282.75058 193.425 285.33381 194.84549 285.33381 191.45984 C 285.33381 188.59645 277.23384 179.2045 263.92756 166.63953 C 250.84963 154.29024 247.3807 148.14059 249.44123 140.95594 C 250.2629 138.09095 250.03251 136.51012 248.58381 135.0614 C 247.49482 133.97243 245.70911 131.34894 244.61506 129.23328 C 243.52102 127.11763 241.43498 124.0251 239.97834 122.36023 C 227.07618 107.61382 225.87442 106.55838 221.14631 105.80555 C 220.42187 105.6902 219.7364 105.63042 219.07404 105.64344 z M 269.81232 129.9364 C 269.45013 129.91196 271.74653 133.12207 276.59748 139.4989 C 280.39306 144.4884 285.60782 149.50224 286.29084 148.81922 C 286.47322 148.63684 284.29138 145.82784 281.44123 142.57703 C 274.04889 134.14552 270.22281 129.96411 269.81232 129.9364 z M 176.04084 137.44226 C 175.51439 137.40189 174.36899 138.96982 172.9256 142.33289 C 171.74535 145.08289 169.70476 148.83355 168.39045 150.66687 L 165.99982 154.00086 L 169.33381 151.84461 C 171.16714 150.65928 173.70601 146.90862 174.97639 143.51062 C 176.43862 139.59944 176.63748 137.48802 176.04084 137.44226 z M 255.61506 142.00086 L 258.14045 145.53601 C 259.52943 147.48085 260.93367 148.81411 261.25959 148.4989 C 261.58552 148.18368 260.4491 146.59337 258.7342 144.96375 L 255.61506 142.00086 z M 212.66584 184.17859 L 212.77326 192.42273 C 212.90692 202.84197 212.85322 202.66687 215.83771 202.66687 C 217.34567 202.66687 218.98123 201.12562 219.94709 198.79383 C 222.24549 193.24503 221.24817 189.56727 216.66584 186.69031 L 212.66584 184.17859 z M 284.07404 195.44226 C 284.0257 195.44893 283.99982 195.48334 283.99982 195.54773 C 283.99982 196.32488 285.95048 199.06973 288.33381 201.64734 C 290.71714 204.22495 296.1197 210.60793 300.33967 215.83289 C 304.55962 221.05784 308.72749 225.33289 309.60139 225.33289 C 310.47528 225.33289 309.37301 223.38419 307.15217 221.00086 C 304.93131 218.61752 301.96281 215.12832 300.55646 213.2489 C 295.65657 206.70071 285.05708 195.30666 284.07404 195.44226 z M 278.04084 197.88172 C 277.82849 197.84686 278.12746 198.59328 278.78693 199.94226 C 282.71885 207.98523 301.12422 231.31982 302.47248 229.97156 C 302.83915 229.6049 301.6101 227.66221 299.74201 225.6532 C 297.87391 223.64418 292.81747 217.21926 288.50568 211.37586 C 281.45391 201.81915 278.508 197.95841 278.04084 197.88172 z M 272.61701 201.33289 C 272.19062 201.33289 272.28663 202.08419 272.8299 203.00086 C 274.15294 205.23324 286.46106 225.22167 288.83967 229.00086 C 289.87818 230.65086 291.33175 232.00086 292.07014 232.00086 C 292.80853 232.00086 292.26466 230.34956 290.86115 228.33289 C 289.45764 226.31622 284.95338 219.41751 280.85139 213.00086 C 276.74939 206.58419 273.04341 201.33289 272.61701 201.33289 z M 268.32795 205.09851 C 267.6385 204.98477 270.07545 210.81725 274.04279 218.70398 C 278.27461 227.11649 281.96275 233.35149 282.23811 232.55945 C 282.51348 231.76741 280.02251 226.20921 276.70295 220.20789 C 273.38338 214.20655 270.66584 208.77889 270.66584 208.14539 C 270.66584 207.5119 269.69527 206.18768 268.50764 205.20203 C 268.43341 205.14043 268.37391 205.1061 268.32795 205.09851 z " />
    <path
       style="fill:#ff00ff;stroke-width:1.33333"
       d="m 213.97382,51.957647 c -0.51781,-0.837833 -0.31408,-2.150724 0.45272,-2.917534 1.79187,-1.791866 5.96952,-0.228914 5.24051,1.960588 -0.74213,2.228914 -4.51516,2.863104 -5.69323,0.956946 z"
       id="path3300" />
  </g>
</svg>
